# xmcd
#
# Track frame offsets:
#	150
#	9518
#	19368
#	31369
#	40905
#	53004
#	62771
#	75063
#	84694
#	94209
#	106504
#	116249
#
# Disc length: 1677 seconds
#
# Revision: 0
# Processed by: cddbd v1.4PL0 Copyright (c) Steve Scherf et al.
# Submitted via: dBpowerAMP V4.0
#
DISCID=89068b0c
DTITLE=Nashville Brass - Nashville Brass
DYEAR=1997
DGENRE=Country
TTITLE0=Down Yonder
TTITLE1=Jambalaya
TTITLE2=Great Speckled Bird
TTITLE3=Midnight Special
TTITLE4=Sugar Horn
TTITLE5=Shenandoah
TTITLE6=Orange Blossom
TTITLE7=Streets of Laredo
TTITLE8=Wildwood Flower
TTITLE9=Crazy
TTITLE10=Bill Bailey
TTITLE11=Tennessee Waltz
EXTD=MTLCD 1018   [UPC 6 25882 00001 8]
EXTT0=
EXTT1=
EXTT2=
EXTT3=
EXTT4=
EXTT5=
EXTT6=
EXTT7=
EXTT8=
EXTT9=
EXTT10=
EXTT11=
PLAYORDER=
